<svg width="16" height="16" viewBox="0 0 16 16" fill="none" xmlns="http://www.w3.org/2000/svg">
<circle cx="8" cy="8" r="8" fill="#6366F1"/>
<g clip-path="url(#clip0_2980_4848)">
<path d="M8.32188 3.63688C8.21477 3.62897 8.1074 3.62501 8 3.625V3C8.12284 3.00006 8.24563 3.00465 8.36812 3.01375L8.32188 3.63688ZM9.57437 3.91812C9.37403 3.84081 9.16827 3.77835 8.95875 3.73125L9.09563 3.12125C9.33563 3.175 9.57021 3.24625 9.79937 3.335L9.57437 3.91812ZM10.4306 4.36187C10.3413 4.30228 10.2497 4.24599 10.1562 4.19313L10.4644 3.64938C10.6781 3.77041 10.8826 3.90703 11.0762 4.05813L10.6919 4.55125C10.6071 4.48515 10.52 4.42219 10.4306 4.3625V4.36187ZM11.5769 5.48063C11.4532 5.305 11.3168 5.13872 11.1687 4.98313L11.6212 4.55187C11.7904 4.73063 11.946 4.92021 12.0881 5.12063L11.5769 5.48063ZM12.0419 6.32562C12.0009 6.22652 11.9563 6.12895 11.9081 6.03313L12.4662 5.75187C12.5766 5.97133 12.6706 6.19861 12.7475 6.43188L12.1537 6.6275C12.1202 6.52554 12.0829 6.42484 12.0419 6.32562ZM12.3731 7.8925C12.368 7.67771 12.3472 7.46359 12.3106 7.25187L12.9262 7.14563C12.9679 7.38729 12.9921 7.63104 12.9987 7.87687L12.3731 7.8925ZM12.2912 8.85375C12.3121 8.74792 12.329 8.64167 12.3419 8.535L12.9625 8.61188C12.9324 8.8557 12.8843 9.09698 12.8187 9.33375L12.2162 9.16687C12.245 9.06396 12.27 8.95958 12.2912 8.85375ZM11.6962 10.3406C11.8112 10.159 11.9125 9.96979 12 9.77312L12.5712 10.0262C12.4712 10.2512 12.3556 10.4675 12.2244 10.675L11.6962 10.3406ZM11.0937 11.0938C11.17 11.0175 11.2429 10.9387 11.3125 10.8575L11.7862 11.2656C11.7061 11.3587 11.6225 11.4487 11.5356 11.5356L11.0937 11.0938Z" fill="white"/>
<path d="M7.99963 3.625C7.28018 3.62505 6.57185 3.80253 5.93737 4.14171C5.30289 4.48089 4.76185 4.97131 4.36217 5.56953C3.96249 6.16775 3.7165 6.8553 3.646 7.57129C3.5755 8.28728 3.68266 9.0096 3.95799 9.67428C4.23332 10.339 4.66832 10.9255 5.22446 11.3819C5.7806 11.8383 6.44072 12.1505 7.14634 12.2909C7.85196 12.4313 8.58132 12.3955 9.26979 12.1867C9.95827 11.9778 10.5846 11.6025 11.0934 11.0938L11.5353 11.5356C10.9538 12.1174 10.2379 12.5467 9.45091 12.7856C8.6639 13.0245 7.83011 13.0656 7.02342 12.9053C6.21673 12.745 5.46204 12.3881 4.82623 11.8664C4.19041 11.3447 3.69309 10.6742 3.37834 9.91431C3.06359 9.15444 2.94112 8.32867 3.02179 7.51017C3.10246 6.69166 3.38377 5.90569 3.8408 5.22189C4.29783 4.53809 4.91647 3.97757 5.6419 3.59C6.36733 3.20243 7.17716 2.99978 7.99963 3V3.625Z" fill="white"/>
<path d="M7.6875 4.875C7.77038 4.875 7.84987 4.90792 7.90847 4.96653C7.96708 5.02513 8 5.10462 8 5.1875V8.44375L10.03 9.60375C10.0999 9.6459 10.1505 9.71371 10.171 9.79268C10.1916 9.87165 10.1804 9.95553 10.1399 10.0264C10.0994 10.0972 10.0328 10.1494 9.95437 10.1718C9.8759 10.1942 9.79179 10.185 9.72 10.1462L7.5325 8.89625C7.48467 8.86893 7.44491 8.82945 7.41725 8.78182C7.38959 8.73418 7.37502 8.68008 7.375 8.625V5.1875C7.375 5.10462 7.40792 5.02513 7.46653 4.96653C7.52513 4.90792 7.60462 4.875 7.6875 4.875Z" fill="white"/>
</g>
<defs>
<clipPath id="clip0_2980_4848">
<rect width="10" height="10" fill="white" transform="translate(3 3)"/>
</clipPath>
</defs>
</svg>
